<svg xmlns="http://www.w3.org/2000/svg" xmlns:xlink="http://www.w3.org/1999/xlink" width="479" zoomAndPan="magnify" viewBox="0 0 359.25 125.249995" height="167" preserveAspectRatio="xMidYMid meet" version="1.0"><defs><g/><clipPath id="cf66ac460e"><path d="M 9 116 L 80 116 L 80 124.503906 L 9 124.503906 Z M 9 116 " clip-rule="nonzero"/></clipPath><clipPath id="ddff78f699"><path d="M 12 56 L 21 56 L 21 124.503906 L 12 124.503906 Z M 12 56 " clip-rule="nonzero"/></clipPath></defs><g fill="#000000" fill-opacity="1"><g transform="translate(30.132268, 82.034585)"><g><path d="M 4.09375 -31.15625 C 4.09375 -32.820312 3.890625 -34.171875 3.484375 -35.203125 C 3.078125 -36.234375 2.597656 -36.988281 2.046875 -37.46875 C 1.492188 -37.945312 0.988281 -38.1875 0.53125 -38.1875 L 0.53125 -38.71875 C 1.988281 -38.71875 3.628906 -38.875 5.453125 -39.1875 C 7.285156 -39.507812 9.125 -39.910156 10.96875 -40.390625 C 12.8125 -40.867188 14.492188 -41.363281 16.015625 -41.875 C 17.546875 -42.394531 18.722656 -42.867188 19.546875 -43.296875 L 20.078125 -43.296875 L 20.078125 -34.765625 C 20.460938 -36.148438 21.234375 -37.5 22.390625 -38.8125 C 23.546875 -40.132812 24.929688 -41.210938 26.546875 -42.046875 C 28.160156 -42.878906 29.835938 -43.296875 31.578125 -43.296875 C 34.066406 -43.296875 36.207031 -42.84375 38 -41.9375 C 39.789062 -41.03125 41.28125 -39.835938 42.46875 -38.359375 C 43.65625 -36.890625 44.601562 -35.273438 45.3125 -33.515625 C 46.019531 -31.765625 46.523438 -30.007812 46.828125 -28.25 C 47.128906 -26.488281 47.28125 -24.898438 47.28125 -23.484375 C 47.28125 -20.148438 46.78125 -17.050781 45.78125 -14.1875 C 44.789062 -11.332031 43.375 -8.835938 41.53125 -6.703125 C 39.6875 -4.578125 37.453125 -2.921875 34.828125 -1.734375 C 32.203125 -0.546875 29.253906 0.046875 25.984375 0.046875 L 20.078125 0.046875 L 20.078125 11.71875 C 20.078125 13.664062 20.34375 15.222656 20.875 16.390625 C 21.40625 17.566406 22.289062 18.316406 23.53125 18.640625 L 23.53125 19.171875 L 0.640625 19.171875 L 0.640625 18.640625 C 1.878906 18.316406 2.765625 17.566406 3.296875 16.390625 C 3.828125 15.222656 4.09375 13.664062 4.09375 11.71875 Z M 20.078125 -30.03125 L 20.078125 -1.0625 C 22.378906 -1.164062 24.265625 -1.820312 25.734375 -3.03125 C 27.210938 -4.238281 28.367188 -5.851562 29.203125 -7.875 C 30.035156 -9.90625 30.617188 -12.1875 30.953125 -14.71875 C 31.296875 -17.257812 31.46875 -19.914062 31.46875 -22.6875 C 31.46875 -24.175781 31.316406 -25.691406 31.015625 -27.234375 C 30.710938 -28.773438 30.269531 -30.191406 29.6875 -31.484375 C 29.101562 -32.785156 28.359375 -33.828125 27.453125 -34.609375 C 26.546875 -35.390625 25.503906 -35.78125 24.328125 -35.78125 C 23.085938 -35.78125 22.164062 -35.503906 21.5625 -34.953125 C 20.957031 -34.410156 20.554688 -33.703125 20.359375 -32.828125 C 20.171875 -31.960938 20.078125 -31.03125 20.078125 -30.03125 Z M 20.078125 -30.03125 "/></g></g></g><g fill="#000000" fill-opacity="1"><g transform="translate(79.641769, 82.034585)"><g><path d="M 0.53125 -38.234375 L 0.53125 -38.765625 C 1.988281 -38.765625 3.628906 -38.921875 5.453125 -39.234375 C 7.285156 -39.554688 9.125 -39.957031 10.96875 -40.4375 C 12.8125 -40.914062 14.492188 -41.410156 16.015625 -41.921875 C 17.546875 -42.441406 18.722656 -42.914062 19.546875 -43.34375 L 20.078125 -43.34375 L 20.078125 -35.84375 C 20.503906 -36.800781 21.195312 -37.863281 22.15625 -39.03125 C 23.113281 -40.207031 24.378906 -41.21875 25.953125 -42.0625 C 27.535156 -42.914062 29.410156 -43.34375 31.578125 -43.34375 C 34.171875 -43.34375 36.304688 -42.789062 37.984375 -41.6875 C 39.671875 -40.59375 40.929688 -39.191406 41.765625 -37.484375 C 42.609375 -35.785156 43.03125 -34.007812 43.03125 -32.15625 C 43.03125 -29.144531 42.191406 -26.75 40.515625 -24.96875 C 38.847656 -23.195312 36.648438 -22.3125 33.921875 -22.3125 C 31.222656 -22.3125 29.039062 -23.144531 27.375 -24.8125 C 25.707031 -26.476562 24.875 -28.660156 24.875 -31.359375 C 24.875 -32.429688 25.003906 -33.265625 25.265625 -33.859375 C 25.535156 -34.460938 25.800781 -34.992188 26.0625 -35.453125 C 26.332031 -35.921875 26.46875 -36.472656 26.46875 -37.109375 C 26.46875 -37.890625 26.039062 -38.28125 25.1875 -38.28125 C 24.582031 -38.28125 23.867188 -38.023438 23.046875 -37.515625 C 22.234375 -37.003906 21.535156 -36.265625 20.953125 -35.296875 C 20.367188 -34.335938 20.078125 -33.148438 20.078125 -31.734375 L 20.078125 -7.453125 C 20.078125 -5.503906 20.34375 -3.941406 20.875 -2.765625 C 21.40625 -1.597656 22.289062 -0.851562 23.53125 -0.53125 L 23.53125 0 L 0.640625 0 L 0.640625 -0.53125 C 1.878906 -0.851562 2.765625 -1.597656 3.296875 -2.765625 C 3.828125 -3.941406 4.09375 -5.503906 4.09375 -7.453125 L 4.09375 -31.203125 C 4.09375 -32.867188 3.890625 -34.21875 3.484375 -35.25 C 3.078125 -36.28125 2.597656 -37.035156 2.046875 -37.515625 C 1.492188 -37.992188 0.988281 -38.234375 0.53125 -38.234375 Z M 0.53125 -38.234375 "/></g></g></g><g fill="#000000" fill-opacity="1"><g transform="translate(123.295306, 82.034585)"><g><path d="M 23.484375 1.015625 C 20.535156 1.015625 17.773438 0.519531 15.203125 -0.46875 C 12.628906 -1.46875 10.359375 -2.914062 8.390625 -4.8125 C 6.421875 -6.71875 4.882812 -9.046875 3.78125 -11.796875 C 2.675781 -14.546875 2.125 -17.660156 2.125 -21.140625 C 2.125 -24.617188 2.679688 -27.734375 3.796875 -30.484375 C 4.921875 -33.234375 6.46875 -35.566406 8.4375 -37.484375 C 10.40625 -39.398438 12.675781 -40.851562 15.25 -41.84375 C 17.820312 -42.84375 20.582031 -43.34375 23.53125 -43.34375 C 26.476562 -43.34375 29.238281 -42.84375 31.8125 -41.84375 C 34.382812 -40.851562 36.65625 -39.398438 38.625 -37.484375 C 40.601562 -35.566406 42.140625 -33.234375 43.234375 -30.484375 C 44.335938 -27.734375 44.890625 -24.617188 44.890625 -21.140625 C 44.890625 -17.660156 44.328125 -14.546875 43.203125 -11.796875 C 42.085938 -9.046875 40.546875 -6.71875 38.578125 -4.8125 C 36.609375 -2.914062 34.335938 -1.46875 31.765625 -0.46875 C 29.191406 0.519531 26.429688 1.015625 23.484375 1.015625 Z M 19.4375 -21.1875 C 19.4375 -18.28125 19.441406 -15.546875 19.453125 -12.984375 C 19.472656 -10.429688 19.582031 -8.1875 19.78125 -6.25 C 19.976562 -4.320312 20.367188 -2.816406 20.953125 -1.734375 C 21.535156 -0.648438 22.378906 -0.109375 23.484375 -0.109375 C 24.617188 -0.109375 25.46875 -0.648438 26.03125 -1.734375 C 26.601562 -2.816406 26.988281 -4.320312 27.1875 -6.25 C 27.382812 -8.1875 27.488281 -10.429688 27.5 -12.984375 C 27.519531 -15.546875 27.53125 -18.28125 27.53125 -21.1875 C 27.53125 -24.101562 27.519531 -26.828125 27.5 -29.359375 C 27.488281 -31.898438 27.382812 -34.128906 27.1875 -36.046875 C 26.988281 -37.960938 26.601562 -39.460938 26.03125 -40.546875 C 25.46875 -41.628906 24.617188 -42.171875 23.484375 -42.171875 C 22.378906 -42.171875 21.535156 -41.628906 20.953125 -40.546875 C 20.367188 -39.460938 19.976562 -37.960938 19.78125 -36.046875 C 19.582031 -34.128906 19.472656 -31.898438 19.453125 -29.359375 C 19.441406 -26.828125 19.4375 -24.101562 19.4375 -21.1875 Z M 19.4375 -21.1875 "/></g></g></g><g fill="#314528" fill-opacity="1"><g transform="translate(170.409464, 82.034585)"><g><path d="M 3.5625 -41.375 L 0 -41.375 L 0 -42.390625 C 1.351562 -42.390625 2.90625 -42.59375 4.65625 -43 C 6.414062 -43.40625 8.203125 -43.960938 10.015625 -44.671875 C 11.828125 -45.378906 13.519531 -46.175781 15.09375 -47.0625 C 16.675781 -47.957031 17.984375 -48.882812 19.015625 -49.84375 L 19.546875 -49.84375 L 19.546875 -42.390625 L 24.765625 -42.390625 L 24.765625 -41.375 L 19.546875 -41.375 L 19.546875 -19.4375 C 19.546875 -15.988281 19.6875 -13.15625 19.96875 -10.9375 C 20.25 -8.71875 20.789062 -7.082031 21.59375 -6.03125 C 22.394531 -4.988281 23.539062 -4.46875 25.03125 -4.46875 C 25.03125 -3.082031 24.335938 -1.8125 22.953125 -0.65625 C 21.566406 0.488281 19.597656 1.0625 17.046875 1.0625 C 14.097656 1.0625 11.734375 0.476562 9.953125 -0.6875 C 8.179688 -1.863281 6.832031 -3.441406 5.90625 -5.421875 C 4.988281 -7.410156 4.367188 -9.617188 4.046875 -12.046875 C 3.722656 -14.484375 3.5625 -16.945312 3.5625 -19.4375 Z M 3.5625 -41.375 "/></g></g></g><g fill="#314528" fill-opacity="1"><g transform="translate(194.205981, 82.034585)"><g><path d="M 24.328125 1.015625 C 21.242188 1.015625 18.359375 0.4375 15.671875 -0.71875 C 12.992188 -1.875 10.644531 -3.460938 8.625 -5.484375 C 6.601562 -7.503906 5.015625 -9.851562 3.859375 -12.53125 C 2.703125 -15.21875 2.125 -18.085938 2.125 -21.140625 C 2.125 -24.191406 2.640625 -27.054688 3.671875 -29.734375 C 4.703125 -32.421875 6.15625 -34.773438 8.03125 -36.796875 C 9.914062 -38.816406 12.144531 -40.40625 14.71875 -41.5625 C 17.289062 -42.71875 20.125 -43.296875 23.21875 -43.296875 C 27.257812 -43.296875 30.679688 -42.671875 33.484375 -41.421875 C 36.296875 -40.179688 38.4375 -38.519531 39.90625 -36.4375 C 41.382812 -34.363281 42.125 -32.066406 42.125 -29.546875 C 42.125 -26.035156 40.6875 -23.375 37.8125 -21.5625 C 34.9375 -19.75 30.285156 -18.84375 23.859375 -18.84375 L 19.0625 -18.84375 C 20.726562 -16.21875 22.898438 -14.210938 25.578125 -12.828125 C 28.265625 -11.441406 31.296875 -10.75 34.671875 -10.75 C 35.867188 -10.75 37.019531 -10.863281 38.125 -11.09375 C 39.226562 -11.332031 40.328125 -11.679688 41.421875 -12.140625 C 41.421875 -10.296875 40.953125 -8.570312 40.015625 -6.96875 C 39.078125 -5.375 37.800781 -3.972656 36.1875 -2.765625 C 34.570312 -1.554688 32.742188 -0.625 30.703125 0.03125 C 28.660156 0.6875 26.535156 1.015625 24.328125 1.015625 Z M 18.484375 -19.859375 L 18.796875 -19.859375 C 20.566406 -19.859375 22.054688 -20.210938 23.265625 -20.921875 C 24.472656 -21.640625 25.445312 -22.59375 26.1875 -23.78125 C 26.9375 -24.96875 27.472656 -26.269531 27.796875 -27.6875 C 28.117188 -29.101562 28.28125 -30.503906 28.28125 -31.890625 C 28.28125 -33.023438 28.160156 -34.1875 27.921875 -35.375 C 27.691406 -36.570312 27.328125 -37.675781 26.828125 -38.6875 C 26.335938 -39.695312 25.707031 -40.519531 24.9375 -41.15625 C 24.175781 -41.800781 23.285156 -42.125 22.265625 -42.125 C 21.054688 -42.125 20.03125 -41.773438 19.1875 -41.078125 C 18.351562 -40.390625 17.6875 -39.492188 17.1875 -38.390625 C 16.695312 -37.296875 16.34375 -36.148438 16.125 -34.953125 C 15.914062 -33.765625 15.8125 -32.65625 15.8125 -31.625 C 15.8125 -29.28125 16.039062 -27.125 16.5 -25.15625 C 16.96875 -23.1875 17.628906 -21.421875 18.484375 -19.859375 Z M 18.484375 -19.859375 "/></g></g></g><g fill="#314528" fill-opacity="1"><g transform="translate(236.954514, 82.034585)"><g><path d="M 0.53125 -38.1875 L 0.53125 -38.71875 C 1.882812 -38.71875 3.421875 -38.847656 5.140625 -39.109375 C 6.859375 -39.378906 8.597656 -39.726562 10.359375 -40.15625 C 12.117188 -40.582031 13.75 -41.039062 15.25 -41.53125 C 16.757812 -42.03125 17.976562 -42.507812 18.90625 -42.96875 C 19.007812 -43.039062 19.125 -43.101562 19.25 -43.15625 C 19.375 -43.207031 19.472656 -43.253906 19.546875 -43.296875 L 20.078125 -43.296875 L 20.078125 -11.125 C 20.078125 -10.164062 20.171875 -9.160156 20.359375 -8.109375 C 20.554688 -7.066406 20.9375 -6.191406 21.5 -5.484375 C 22.070312 -4.773438 22.910156 -4.421875 24.015625 -4.421875 C 25.148438 -4.421875 26.113281 -4.75 26.90625 -5.40625 C 27.707031 -6.0625 28.332031 -6.921875 28.78125 -7.984375 C 29.226562 -9.046875 29.453125 -10.179688 29.453125 -11.390625 L 29.453125 -31.15625 C 29.453125 -32.820312 29.242188 -34.171875 28.828125 -35.203125 C 28.421875 -36.234375 27.941406 -36.988281 27.390625 -37.46875 C 26.847656 -37.945312 26.34375 -38.1875 25.875 -38.1875 L 25.875 -38.71875 C 27.226562 -38.71875 28.765625 -38.847656 30.484375 -39.109375 C 32.203125 -39.378906 33.941406 -39.726562 35.703125 -40.15625 C 37.460938 -40.582031 39.09375 -41.039062 40.59375 -41.53125 C 42.101562 -42.03125 43.320312 -42.507812 44.25 -42.96875 C 44.351562 -43.039062 44.46875 -43.101562 44.59375 -43.15625 C 44.71875 -43.207031 44.816406 -43.253906 44.890625 -43.296875 L 45.421875 -43.296875 L 45.421875 -11.125 C 45.421875 -9.457031 45.625 -8.109375 46.03125 -7.078125 C 46.4375 -6.046875 46.921875 -5.289062 47.484375 -4.8125 C 48.054688 -4.332031 48.554688 -4.09375 48.984375 -4.09375 L 48.984375 -3.5625 C 47.640625 -3.5625 46.101562 -3.410156 44.375 -3.109375 C 42.65625 -2.804688 40.925781 -2.429688 39.1875 -1.984375 C 37.445312 -1.546875 35.820312 -1.085938 34.3125 -0.609375 C 32.8125 -0.128906 31.582031 0.300781 30.625 0.6875 C 30.375 0.800781 30.160156 0.910156 29.984375 1.015625 L 29.453125 1.015625 L 29.453125 -7.03125 C 28.773438 -5.613281 27.796875 -4.289062 26.515625 -3.0625 C 25.234375 -1.832031 23.734375 -0.84375 22.015625 -0.09375 C 20.296875 0.644531 18.425781 1.015625 16.40625 1.015625 C 13.707031 1.015625 11.53125 0.546875 9.875 -0.390625 C 8.226562 -1.335938 6.992188 -2.535156 6.171875 -3.984375 C 5.359375 -5.441406 4.804688 -6.988281 4.515625 -8.625 C 4.234375 -10.257812 4.09375 -11.769531 4.09375 -13.15625 L 4.09375 -31.15625 C 4.09375 -32.820312 3.890625 -34.171875 3.484375 -35.203125 C 3.078125 -36.234375 2.597656 -36.988281 2.046875 -37.46875 C 1.492188 -37.945312 0.988281 -38.1875 0.53125 -38.1875 Z M 0.53125 -38.1875 "/></g></g></g><g fill="#314528" fill-opacity="1"><g transform="translate(286.570483, 82.034585)"><g><path d="M 26.359375 -4.09375 C 26.359375 -5.65625 25.921875 -7.003906 25.046875 -8.140625 C 24.179688 -9.273438 23.03125 -10.296875 21.59375 -11.203125 C 20.15625 -12.109375 18.570312 -12.988281 16.84375 -13.84375 C 15.125 -14.695312 13.394531 -15.601562 11.65625 -16.5625 C 9.914062 -17.519531 8.328125 -18.609375 6.890625 -19.828125 C 5.453125 -21.054688 4.296875 -22.519531 3.421875 -24.21875 C 2.554688 -25.925781 2.125 -27.953125 2.125 -30.296875 C 2.125 -33.210938 2.921875 -35.628906 4.515625 -37.546875 C 6.117188 -39.460938 8.222656 -40.90625 10.828125 -41.875 C 13.441406 -42.851562 16.296875 -43.34375 19.390625 -43.34375 C 22.148438 -43.34375 24.539062 -43.179688 26.5625 -42.859375 C 28.59375 -42.546875 30.367188 -42.390625 31.890625 -42.390625 C 32.742188 -42.390625 33.570312 -42.453125 34.375 -42.578125 C 35.175781 -42.703125 35.804688 -42.957031 36.265625 -43.34375 L 36.796875 -43.34375 L 36.796875 -27.3125 L 36.265625 -27.3125 C 35.765625 -28.914062 35.0625 -30.578125 34.15625 -32.296875 C 33.25 -34.015625 32.179688 -35.617188 30.953125 -37.109375 C 29.734375 -38.609375 28.421875 -39.828125 27.015625 -40.765625 C 25.617188 -41.703125 24.15625 -42.171875 22.625 -42.171875 C 21.132812 -42.171875 19.832031 -41.742188 18.71875 -40.890625 C 17.601562 -40.046875 17.046875 -38.859375 17.046875 -37.328125 C 17.046875 -35.835938 17.441406 -34.539062 18.234375 -33.4375 C 19.035156 -32.34375 20.09375 -31.347656 21.40625 -30.453125 C 22.71875 -29.566406 24.160156 -28.710938 25.734375 -27.890625 C 27.316406 -27.078125 28.898438 -26.21875 30.484375 -25.3125 C 32.066406 -24.414062 33.515625 -23.378906 34.828125 -22.203125 C 36.140625 -21.035156 37.191406 -19.648438 37.984375 -18.046875 C 38.785156 -16.453125 39.1875 -14.570312 39.1875 -12.40625 C 39.1875 -10.238281 38.679688 -8.320312 37.671875 -6.65625 C 36.660156 -4.988281 35.300781 -3.585938 33.59375 -2.453125 C 31.894531 -1.316406 30 -0.457031 27.90625 0.125 C 25.8125 0.71875 23.695312 1.015625 21.5625 1.015625 C 19.082031 1.015625 16.800781 0.890625 14.71875 0.640625 C 12.644531 0.390625 10.648438 -0.0859375 8.734375 -0.796875 C 6.816406 -1.503906 4.847656 -2.550781 2.828125 -3.9375 L 2.828125 -16.5 L 3.359375 -16.5 C 4.347656 -14.519531 5.507812 -12.550781 6.84375 -10.59375 C 8.175781 -8.644531 9.628906 -6.878906 11.203125 -5.296875 C 12.785156 -3.710938 14.453125 -2.441406 16.203125 -1.484375 C 17.960938 -0.523438 19.769531 -0.046875 21.625 -0.046875 C 22.96875 -0.046875 24.09375 -0.375 25 -1.03125 C 25.90625 -1.695312 26.359375 -2.71875 26.359375 -4.09375 Z M 26.359375 -4.09375 "/></g></g></g><g clip-path="url(#cf66ac460e)"><path stroke-linecap="butt" transform="matrix(0.745536, 0, 0, 0.745536, 12.76166, 116.768429)" fill="none" stroke-linejoin="miter" d="M 0.000078437 4.999982 L 84.434966 4.999982 " stroke="#000000" stroke-width="10" stroke-opacity="1" stroke-miterlimit="4"/></g><g clip-path="url(#ddff78f699)"><path stroke-linecap="butt" transform="matrix(0, 0.745536, -0.745536, 0, 20.213194, 60.511623)" fill="none" stroke-linejoin="miter" d="M 0.000128111 5.001531 L 82.464955 5.001531 " stroke="#000000" stroke-width="10" stroke-opacity="1" stroke-miterlimit="4"/></g><path stroke-linecap="butt" transform="matrix(-0.745536, 0, 0, -0.745536, 345.025689, 24.169595)" fill="none" stroke-linejoin="miter" d="M -0.00221976 5.000685 L 84.432668 5.000685 " stroke="#314528" stroke-width="10" stroke-opacity="1" stroke-miterlimit="4"/><path stroke-linecap="butt" transform="matrix(0, -0.745536, 0.745536, 0, 337.574875, 80.426412)" fill="none" stroke-linejoin="miter" d="M 0.000846201 4.997624 L 82.465673 4.997624 " stroke="#314528" stroke-width="10" stroke-opacity="1" stroke-miterlimit="4"/></svg>